<svg xmlns="http://www.w3.org/2000/svg" viewBox="0 0 200 240" width="200" height="240">
  <defs>
    <filter id="s" x="-40%" y="-40%" width="180%" height="180%"><feDropShadow dx="0" dy="14" stdDeviation="10" flood-color="#5f3f35" flood-opacity="0.22"/></filter>
  </defs>
  <g transform="rotate(-3 100 120)" filter="url(#s)">
    <ellipse cx="100" cy="222" rx="52" ry="12" fill="#7a5a4b" opacity="0.16"/>
    <path d="M76 116 Q100 98 124 116 L136 185 Q100 214 64 185 Z" fill="#ffd8e4" stroke="#fff" stroke-width="5"/>
    <path d="M72 118 Q48 150 58 171" stroke="#ffd7c2" stroke-width="14" stroke-linecap="round" fill="none"/>
    <path d="M128 118 Q152 150 142 171" stroke="#ffd7c2" stroke-width="14" stroke-linecap="round" fill="none"/>
    <path d="M84 188 Q80 212 76 226" stroke="#7b5b50" stroke-width="13" stroke-linecap="round"/>
    <path d="M116 188 Q120 212 124 226" stroke="#7b5b50" stroke-width="13" stroke-linecap="round"/>
    <circle cx="100" cy="78" r="52" fill="#ffd7c2" stroke="#fff" stroke-width="6"/>
    <path d="M52 72 Q62 28 100 28 Q140 28 150 72 Q132 45 100 48 Q68 45 52 72" fill="#5a352c"/>
    <path d="M52 72 Q58 104 68 124 Q42 112 44 82 Q45 62 52 72" fill="#5a352c" opacity="0.95"/>
    <path d="M148 72 Q142 104 132 124 Q158 112 156 82 Q155 62 148 72" fill="#5a352c" opacity="0.95"/>
    <circle cx="75" cy="60" r="8" fill="#fff0f5"/><path d="M68 60 C72 52 78 52 82 60 C78 68 72 68 68 60" fill="#ff9cbb"/>
    <circle cx="82" cy="84" r="5" fill="#392925"/>
    <circle cx="118" cy="84" r="5" fill="#392925"/>
    <circle cx="73" cy="96" r="10" fill="#ff8fab" opacity="0.4"/>
    <circle cx="127" cy="96" r="10" fill="#ff8fab" opacity="0.4"/>
    <path d="M88 93 Q100 103 112 93" stroke="#8f5148" stroke-width="4" stroke-linecap="round" fill="none"/>
    <path d="M80 137 Q100 150 120 137" stroke="#ff7fa5" stroke-width="4" stroke-linecap="round" fill="none" opacity="0.55"/>
  </g>
</svg>